<?xml version="1.0" encoding="UTF-8" standalone="no"?>
<svg
   xmlns:dc="http://purl.org/dc/elements/1.1/"
   xmlns:cc="http://creativecommons.org/ns#"
   xmlns:rdf="http://www.w3.org/1999/02/22-rdf-syntax-ns#"
   xmlns:svg="http://www.w3.org/2000/svg"
   xmlns="http://www.w3.org/2000/svg"
   version="1.1"
   id="svg2"
   xml:space="preserve"
   width="120.37866"
   height="146.468"
   viewBox="0 0 120.37866 146.468"><metadata
     id="metadata8"><rdf:RDF><cc:Work
         rdf:about=""><dc:format>image/svg+xml</dc:format><dc:type
           rdf:resource="http://purl.org/dc/dcmitype/StillImage" /><dc:title></dc:title></cc:Work></rdf:RDF></metadata><defs
     id="defs6"><clipPath
       clipPathUnits="userSpaceOnUse"
       id="clipPath18"><path
         d="M 0,841.89 H 595.276 V 0 H 0 Z"
         id="path16" /></clipPath></defs><g
     id="g10"
     transform="matrix(1.3333333,0,0,-1.3333333,-239.34199,654.12878)"><g
       id="g12"><g
         id="g14"
         clip-path="url(#clipPath18)"><g
           id="g20"
           transform="translate(269.7905,386.6836)"><path
             d="m 0,0 c 0,-3.28 -2.568,-5.938 -5.733,-5.938 h -78.819 c -3.165,0 -5.732,2.658 -5.732,5.938 v 97.974 c 0,3.281 2.567,5.939 5.732,5.939 h 78.819 c 3.165,0 5.733,-2.658 5.733,-5.939 z"
             style="fill:#231f20;fill-opacity:1;fill-rule:nonzero;stroke:none"
             id="path22" /></g><g
           id="g24"
           transform="translate(217.9102,393.7822)"><path
             d="m 0,0 c 0,-0.738 -0.286,-1.337 -0.856,-1.803 -0.572,-0.466 -1.315,-0.7 -2.233,-0.7 h -11.067 c -0.918,0 -1.671,0.234 -2.261,0.7 -0.59,0.466 -0.885,1.065 -0.885,1.803 v 8.943 h 3.904 V 0.27 h 9.495 v 8.402 l -12.135,11.761 c -0.842,0.81 -1.264,1.704 -1.264,2.681 v 7.142 c 0,0.735 0.295,1.336 0.885,1.802 0.59,0.465 1.343,0.698 2.261,0.698 h 11.067 c 0.918,0 1.661,-0.233 2.233,-0.698 C -0.286,31.592 0,30.991 0,30.256 v -8.201 h -3.903 v 7.929 h -9.495 V 22.551 L -1.208,10.79 C -0.403,10.009 0,9.13 0,8.154 Z"
             style="fill:#ffffff;fill-opacity:1;fill-rule:nonzero;stroke:none"
             id="path26" /></g><g
           id="g28"
           transform="translate(238.9756,423.7661)"><path
             d="m 0,0 h -10.251 v -13.381 h 9.437 v -2.818 h -9.437 v -16.288 h -3.905 V 2.772 H 0 Z"
             style="fill:#ffffff;fill-opacity:1;fill-rule:nonzero;stroke:none"
             id="path30" /></g><path
           d="m 248.498,391.279 h -3.905 v 35.259 h 3.905 z"
           style="fill:#ffffff;fill-opacity:1;fill-rule:nonzero;stroke:none"
           id="path32" /><g
           id="g34"
           transform="translate(211.1069,472.3887)"><path
             d="m 0,0 c 0,-1.573 -1.274,-2.847 -2.847,-2.847 h -4.861 c -1.571,0 -2.846,1.274 -2.846,2.847 v 4.86 c 0,1.571 1.275,2.846 2.846,2.846 h 4.861 C -1.274,7.706 0,6.431 0,4.86 Z"
             style="fill:#c6c8ca;fill-opacity:1;fill-rule:nonzero;stroke:none"
             id="path36" /></g><g
           id="g38"
           transform="translate(223.7305,472.3667)"><path
             d="m 0,0 c 0,-1.573 -1.274,-2.847 -2.847,-2.847 h -4.861 c -1.572,0 -2.846,1.274 -2.846,2.847 v 4.86 c 0,1.571 1.274,2.846 2.846,2.846 h 4.861 C -1.274,7.706 0,6.431 0,4.86 Z"
             style="fill:#c6c8ca;fill-opacity:1;fill-rule:nonzero;stroke:none"
             id="path40" /></g><g
           id="g42"
           transform="translate(223.7412,459.7949)"><path
             d="m 0,0 c 0,-1.571 -1.273,-2.845 -2.845,-2.845 h -4.861 c -1.571,0 -2.845,1.274 -2.845,2.845 v 4.862 c 0,1.571 1.274,2.846 2.845,2.846 h 4.861 C -1.273,7.708 0,6.433 0,4.862 Z"
             style="fill:#c6c8ca;fill-opacity:1;fill-rule:nonzero;stroke:none"
             id="path44" /></g><g
           id="g46"
           transform="translate(236.3535,472.3667)"><path
             d="m 0,0 c 0,-1.573 -1.274,-2.847 -2.845,-2.847 h -4.862 c -1.571,0 -2.847,1.274 -2.847,2.847 v 4.86 c 0,1.571 1.276,2.846 2.847,2.846 h 4.862 C -1.274,7.706 0,6.431 0,4.86 Z"
             style="fill:#c6c8ca;fill-opacity:1;fill-rule:nonzero;stroke:none"
             id="path48" /></g><g
           id="g50"
           transform="translate(211.1069,459.7856)"><path
             d="m 0,0 c 0,-1.572 -1.274,-2.845 -2.847,-2.845 h -4.861 c -1.571,0 -2.846,1.273 -2.846,2.845 v 4.862 c 0,1.571 1.275,2.845 2.846,2.845 h 4.861 C -1.274,7.707 0,6.433 0,4.862 Z"
             style="fill:#c6c8ca;fill-opacity:1;fill-rule:nonzero;stroke:none"
             id="path52" /></g><g
           id="g54"
           transform="translate(236.3315,459.7734)"><path
             d="m 0,0 c 0,-1.571 -1.274,-2.846 -2.845,-2.846 h -4.862 c -1.571,0 -2.847,1.275 -2.847,2.846 v 4.862 c 0,1.571 1.276,2.845 2.847,2.845 h 4.862 C -1.274,7.707 0,6.433 0,4.862 Z"
             style="fill:#f1f1f2;fill-opacity:1;fill-rule:nonzero;stroke:none"
             id="path56" /></g><g
           id="g58"
           transform="translate(248.6284,472.3667)"><path
             d="m 0,0 c 0,-1.573 -1.274,-2.847 -2.846,-2.847 h -4.86 c -1.574,0 -2.845,1.274 -2.845,2.847 v 4.86 c 0,1.571 1.271,2.846 2.845,2.846 h 4.86 C -1.274,7.706 0,6.431 0,4.86 Z"
             style="fill:#c6c8ca;fill-opacity:1;fill-rule:nonzero;stroke:none"
             id="path60" /></g><g
           id="g62"
           transform="translate(248.6284,459.7842)"><path
             d="m 0,0 c 0,-1.574 -1.274,-2.847 -2.846,-2.847 h -4.86 c -1.574,0 -2.845,1.273 -2.845,2.847 v 4.86 c 0,1.572 1.271,2.846 2.845,2.846 h 4.86 C -1.274,7.706 0,6.432 0,4.86 Z"
             style="fill:#c6c8ca;fill-opacity:1;fill-rule:nonzero;stroke:none"
             id="path64" /></g><g
           id="g66"
           transform="translate(211.1069,447.2183)"><path
             d="m 0,0 c 0,-1.572 -1.274,-2.845 -2.847,-2.845 h -4.861 c -1.571,0 -2.846,1.273 -2.846,2.845 v 4.86 c 0,1.573 1.275,2.846 2.846,2.846 h 4.861 C -1.274,7.706 0,6.433 0,4.86 Z"
             style="fill:#c6c8ca;fill-opacity:1;fill-rule:nonzero;stroke:none"
             id="path68" /></g><g
           id="g70"
           transform="translate(223.7275,447.2427)"><path
             d="m 0,0 c 0,-1.571 -1.275,-2.845 -2.847,-2.845 h -4.861 c -1.571,0 -2.846,1.274 -2.846,2.845 v 4.862 c 0,1.572 1.275,2.845 2.846,2.845 h 4.861 C -1.275,7.707 0,6.434 0,4.862 Z"
             style="fill:#c6c8ca;fill-opacity:1;fill-rule:nonzero;stroke:none"
             id="path72" /></g><g
           id="g74"
           transform="translate(236.3262,447.2524)"><path
             d="m 0,0 c 0,-1.571 -1.274,-2.844 -2.847,-2.844 h -4.861 c -1.571,0 -2.844,1.273 -2.844,2.844 v 4.861 c 0,1.572 1.273,2.846 2.844,2.846 h 4.861 C -1.274,7.707 0,6.433 0,4.861 Z"
             style="fill:#c6c8ca;fill-opacity:1;fill-rule:nonzero;stroke:none"
             id="path76" /></g><g
           id="g78"
           transform="translate(248.6157,447.2471)"><path
             d="m 0,0 c 0,-1.573 -1.273,-2.846 -2.845,-2.846 h -4.862 c -1.571,0 -2.845,1.273 -2.845,2.846 v 4.861 c 0,1.572 1.274,2.846 2.845,2.846 h 4.862 C -1.273,7.707 0,6.433 0,4.861 Z"
             style="fill:#c6c8ca;fill-opacity:1;fill-rule:nonzero;stroke:none"
             id="path80" /></g><g
           id="g82"
           transform="translate(211.1069,434.6494)"><path
             d="m 0,0 c 0,-1.571 -1.274,-2.847 -2.847,-2.847 h -4.861 c -1.571,0 -2.846,1.276 -2.846,2.847 v 4.862 c 0,1.571 1.275,2.844 2.846,2.844 h 4.861 C -1.274,7.706 0,6.433 0,4.862 Z"
             style="fill:#c6c8ca;fill-opacity:1;fill-rule:nonzero;stroke:none"
             id="path84" /></g><g
           id="g86"
           transform="translate(223.7314,434.6401)"><path
             d="m 0,0 c 0,-1.573 -1.273,-2.846 -2.844,-2.846 h -4.863 c -1.571,0 -2.845,1.273 -2.845,2.846 v 4.861 c 0,1.572 1.274,2.846 2.845,2.846 h 4.863 C -1.273,7.707 0,6.433 0,4.861 Z"
             style="fill:#c6c8ca;fill-opacity:1;fill-rule:nonzero;stroke:none"
             id="path88" /></g><g
           id="g90"
           transform="translate(236.3101,434.6494)"><path
             d="m 0,0 c 0,-1.571 -1.274,-2.847 -2.846,-2.847 h -4.861 c -1.571,0 -2.847,1.276 -2.847,2.847 v 4.862 c 0,1.571 1.276,2.844 2.847,2.844 h 4.861 C -1.274,7.706 0,6.433 0,4.862 Z"
             style="fill:#c6c8ca;fill-opacity:1;fill-rule:nonzero;stroke:none"
             id="path92" /></g><g
           id="g94"
           transform="translate(248.6377,434.6494)"><path
             d="m 0,0 c 0,-1.571 -1.273,-2.847 -2.845,-2.847 h -4.862 c -1.571,0 -2.845,1.276 -2.845,2.847 v 4.862 c 0,1.571 1.274,2.844 2.845,2.844 h 4.862 C -1.273,7.706 0,6.433 0,4.862 Z"
             style="fill:#c6c8ca;fill-opacity:1;fill-rule:nonzero;stroke:none"
             id="path96" /></g></g></g></g></svg>